<?xml version="1.0" encoding="utf-8"?>
<!-- Generator: Adobe Illustrator 21.0.0, SVG Export Plug-In . SVG Version: 6.00 Build 0)  -->
<svg version="1.1" id="Layer_1" xmlns="http://www.w3.org/2000/svg" xmlns:xlink="http://www.w3.org/1999/xlink" x="0px" y="0px"
	 viewBox="0 0 612 310.5" style="enable-background:new 0 0 612 310.5;" xml:space="preserve">
<g>
	<path d="M89.6,204.1c-4.8,2.3-9,3.4-12.6,3.4c-6.2,0-10.6-4.4-13.1-13.1c-2.5-8.7-3.7-20.6-3.7-35.6c0-8.3,0.3-16.8,0.8-25.4
		c0.6-8.6,1.4-20,2.5-34.1c0.1-2.2,0.5-7.5,1.2-15.8c0.7-8.3,1-14.8,1-19.5c0-4.1-0.3-7-0.7-8.6c0.4-0.1,1.4-0.3,3-0.5
		c1.6-0.2,3.4-0.3,5.4-0.3c6.6,0,12.4,1.7,17.3,5c5,3.4,7.5,9.6,7.5,18.6c0,1.5-0.1,2.7-0.2,3.5c-2.6,36.2-3.9,63.4-3.9,81.7
		c0,19.8,1.4,30.5,4.1,32.3C97.3,199.1,94.4,201.8,89.6,204.1z"/>
	<path d="M188.2,139.7c-0.9,1.7-2.5,4.8-4.8,9.3c-2.3,4.5-4.6,8.6-6.8,12.5c-1.9,3.6-3.8,6.6-5.8,9c-1.7,2-3.2,3.4-4.3,4.3l-1.3,0.9
		l-1.5,0.7c-0.1,0-0.4,0.1-0.9,0.4h-0.6c0,0.1-0.1,0.2-0.2,0.2h-0.7h-0.2h-0.4h-0.6c-0.9,0-1.6-0.2-2.2-0.7c-0.9-0.4-1.5-1-1.9-1.9
		c-0.5-0.6-0.8-1.4-1-2.3c-0.2-0.9-0.3-1.5-0.5-1.8c-0.3-1.7-0.4-4.2-0.4-7.3c0.1-3.1,0.4-7.6,0.9-13.6c0.2-3,0.4-5.2,0.4-6.5
		c0-2.7-0.1-4.6-0.2-5.6c-0.1-0.5-0.4-0.9-0.9-1.1c-0.4-0.2-0.9-0.1-1.5,0.6l-1.1,1.1c-0.9,1.1-1.7,2.6-2.6,4.5
		c-0.6,1.1-1.4,2.8-2.4,5c-1.9,4.8-3,8.1-3.5,9.7c-1.6,4.7-3.1,9.8-4.5,15.1l-1.7,6.2c-2.6,9.9-8.2,14.9-16.8,14.9
		c-4.8,0-8.3-1.9-10.3-5.8c-2.1-3.9-3.1-9.1-3.1-15.9c0-3.6,0.2-7.8,0.7-12.7c0.5-4.8,1.1-9.5,1.7-14c1.5-11.4,2.2-19.1,2.2-23.1
		c0-2.6-0.2-4.9-0.6-6.9c0.4-0.1,1.2-0.3,2.4-0.5c1.2-0.2,2.7-0.3,4.3-0.3c5.5,0,10.3,1.8,14.4,5.4c4.1,3.6,6.2,10.3,6.2,20
		l-0.2,3.7v0.9c2.5-4.4,5.2-8.2,8.2-11.6c3-3.4,5.9-5,8.8-5c4.2,0,6.3,4,6.3,11.9c0,2-0.3,5.8-0.9,11.4c0,1-0.1,2.4-0.4,4.1v1.1
		c-0.3,1.5-0.5,3.9-0.7,7.1c0,2.9,0.1,4.8,0.2,6l0.6,1.9l0.2,0.2l0.4,0.2h0.2l0.6-0.2h0.4h0.2c0-0.1,0.1-0.2,0.4-0.2
		c0.1-0.1,0.3-0.2,0.5-0.2c0.2,0,0.3-0.1,0.5-0.2l0.9-0.7c0.4-0.2,1.5-1.3,3.4-3.2c2.1-2.5,4-5.2,5.6-8.2c2.1-3.6,4.3-7.6,6.5-11.8
		c2.2-4.3,3.8-7.2,4.7-8.9L188.2,139.7z"/>
	<path d="M243.4,147.2c-2.9-1.3-6.4-2.5-10.6-3.7c-4.2-1.2-8.3-1.8-12.3-1.8c-5.8,0-10.4,1.5-13.8,4.5c3,4.5,5.3,7.8,6.9,9.9
		c7.1,10.4,12.4,18.8,15.9,25.2c3.5,6.3,5.2,12.2,5.2,17.5c0,6.5-3.2,11.6-9.7,15.5c-6.5,3.2-12.2,4.8-17.2,4.8
		c-1.7,0-3.5-0.2-5.2-0.6h-0.2c-0.4,0-0.6-0.1-0.7-0.2c-1.6-0.3-3.2-0.7-4.7-1.3c-1.7-0.5-3.9-1.6-6.5-3.2c-2.9-1.9-5.2-4-7.1-6.3
		c-2.4-3-4.1-6.3-5.2-10.1l-0.2-1.5l-0.2-0.4v-0.4l-0.2-0.7l-0.2-0.6v-0.7c-0.1-0.4-0.2-0.9-0.2-1.5c-0.4-1.9-0.6-3.9-0.6-6
		c0-4.5,0.5-8.6,1.5-12.5c1.1-3.9,2.7-7.8,4.8-11.7l0.4-0.6c-2-2.7-4-5.7-6.2-9c-5.6-9-8.4-16.7-8.4-23.1c0-5.8,1.8-10.5,5.3-14.1
		c3.5-3.5,7.6-6.2,12-7.9c4.5-1.7,6.7-2.4,6.7-2.1c-0.9,2.1-1.3,4.4-1.3,6.9c0,3.9,1,8.1,3,12.9c2,4.7,4.7,9.9,8.2,15.7
		c4.8-2.7,10.3-4.1,16.2-4.1c4.6,0,9,0.7,13.3,2.1c4.3,1.4,8,2.9,11.1,4.5c3.1,1.6,4.7,2.5,4.7,2.6l0.7,4.5
		C248,149.4,246.2,148.5,243.4,147.2z M195.6,205.7l1.1,0.6c1.1,0.5,2.4,0.7,3.7,0.7c2.1,0,3.5-1.1,4.1-3.4c0.5-1.5,0.7-3.1,0.7-4.8
		c0-4.1-1.2-8.2-3.7-12.4c-2.5-4.2-6.8-10.3-12.9-18.4c-1,2.1-1.8,4.5-2.4,7.3c-0.7,3.6-1.1,7-0.9,10.3l0.6,4.8l1.1,4.5
		c0.6,2.4,1.8,4.6,3.5,6.7C191.7,202.8,193.4,204.2,195.6,205.7z"/>
	<path d="M306,140c-0.4,0.7-4.4,10.1-12.2,28c-7.8,17.9-20.9,26.9-39.4,26.9c-6.7,0-11.4-2.6-14.1-7.8c-2.7-5.2-4-12.2-4-20.9
		c0-6.6,0.8-15.7,2.4-27.2c0.9-5.8,1.3-9.8,1.3-11.9c0-1-0.1-1.6-0.2-1.9c0.4-0.1,1.1-0.2,2.3-0.4c1.2-0.1,2.7-0.2,4.6-0.2
		c5,0,9.3,1,12.9,3c3.6,2,5.4,5.7,5.4,11c0,1.4-0.1,2.4-0.2,3.2c-1.5,9.7-2.2,17.7-2.2,24.1c0,8.7,1.8,13.1,5.4,13.1
		c1.6,0,3.7-0.9,6.2-2.6c4-2.7,7.9-6.9,11.8-12.6c3.9-5.7,7.3-11.3,10.3-16.9c2.9-5.6,4.4-8.5,4.4-8.8L306,140z M244.5,110.2
		c-2.7-2.7-4.1-6-4.1-9.9c0-3.9,1.4-7.1,4.1-9.9c2.7-2.7,6-4.1,9.9-4.1c3.9,0,7.1,1.4,9.9,4.1c2.7,2.7,4.1,6,4.1,9.9
		c0,3.9-1.4,7.2-4.1,9.9c-2.7,2.7-6,4.1-9.9,4.1C250.5,114.3,247.2,112.9,244.5,110.2z"/>
	<path d="M386,145.3c-7.6,4.2-15.7,8.9-24.2,14.3l0.6,7.3c0.1,2.2,0.6,9.7,1.6,22.4c0.9,12.7,1.4,24.4,1.4,35.2
		c0,33.4-5.3,50.2-15.9,50.4l-2.2,0.2c-6.7,0-14.7-3.3-24-10c-9.3-6.7-18.2-19.6-26.9-38.7c-1.2-2.5-1.9-5.2-1.9-8.2
		c0-13.1,13.3-29.1,39.9-48.1c-0.3-3.7-0.4-6.6-0.4-8.6c-4,4-8.8,7.6-14.5,10.7c-5.7,3.2-11.3,4.8-16.8,4.8c-5.6,0-9.8-1.5-12.7-4.4
		c-2.9-2.9-4.3-6.6-4.3-11.1s1.3-9,3.9-13.6c2.6-4.6,6.1-8.3,10.4-11c7.1-4.4,15-6.5,23.9-6.5c2.9,0,5.5,0.3,8,0.7
		c-0.1-1-0.3-3-0.6-6.1c-0.2-3-0.6-5.2-0.9-6.4c0.4-0.1,1.3-0.3,2.7-0.6c1.4-0.2,3-0.4,4.8-0.4c5.6,0,10.6,1.8,15,5.3
		s7,10.2,7.7,19.9l0.6,9.9c8.6-5,16.5-9.3,23.8-13c7.3-3.7,11.9-6,13.9-7l1.7,4.7C398.5,138.5,393.6,141.2,386,145.3z M312,162.6
		c3,0,6.6-1.2,10.8-3.5c4.2-2.4,7.8-5.1,10.6-8.2v-0.2l-0.7-10.1c-5.5,0-11.3,1.1-17.4,3.3c-6.2,2.2-9.2,6.2-9.2,12
		C306,160.4,308,162.6,312,162.6z M335.1,210.9c0-11.1-0.2-21.9-0.6-32.4c-18.9,14.9-28.3,27.1-28.3,36.6c0,2.1,0.5,4.2,1.5,6.2
		c3.1,5.8,6.6,10.8,10.6,14.8c4,4,7.5,6.1,10.4,6.1c3.6,0,5.6-3.2,6-9.5C335,223.8,335.1,216.6,335.1,210.9z"/>
	<path d="M482.6,144.1c0,0.6-1.7,4.6-4.9,12c-3.3,7.4-7.2,14.2-11.7,20.4c-4.5,6.2-9.2,9.3-13.9,9.3c-4.4,0-7.5-3-9.5-8.9
		c-2-5.9-3.7-14.4-5.2-25.5c-1.2-8.8-2.5-15.4-3.7-19.8c-1.2-4.4-3.2-6.5-5.8-6.5c-2.2,0-3.9,1.9-4.9,5.7c-1.1,3.8-2.1,9.8-3.1,18
		c-1.5,10.1-3,18.2-4.5,24.5c-1.5,6.3-4,11.7-7.6,16.4c-3.6,4.7-8.5,6.9-14.7,6.8c-10.2,0.4-15.3-15.5-15.3-47.7
		c0-8.2,0.3-17.7,0.9-28.4c0.6-10.8,1.3-20.9,2.1-30.3c1.4-16.7,2.1-27.7,2.1-33.2c0-3.5-0.2-6-0.6-7.5c0.4-0.1,1.3-0.3,2.7-0.5
		c1.4-0.2,3-0.3,4.8-0.3c5.8,0,11,1.5,15.4,4.5c4.4,3,6.6,8.5,6.6,16.6l-0.2,3.2c-2.1,27.6-3.4,50.7-3.9,69.4
		c2.1-9.7,4.8-17.7,8.2-24c3.4-6.3,7.5-9.4,12.5-9.4c4,0,7.1,2,9.3,5.9c2.2,3.9,3.8,8.6,4.8,14.1c0.9,5.5,1.9,12.6,2.9,21.4
		c0.9,8.6,1.7,14.9,2.6,19c0.9,4.1,2.3,6.5,4.3,7.1c2.9,0.7,6.3-1.4,10.3-6.3c4-5,7.8-10.7,11.4-17.1c3.6-6.4,5.4-9.8,5.4-10.2
		L482.6,144.1z"/>
	<path d="M544,139.7c0,1.4-2.9,7.9-8.8,19.6c-5.8,11.7-13.3,22.3-22.3,31.9c-9,9.6-18.9,13.9-29.7,13.1c-5.7-0.3-9.7-5.4-12-15.4
		c-2.3-10-3.5-23.4-3.5-40.2c0-12.9,0.6-28.3,1.7-46.2l-6.2,0.4c-2.7,0-4.7,0.1-6,0.2h-8.8h-2.6h-0.7l-0.6-5.8l0.9-0.2l2.4-0.4
		l8.8-1.3l5.8-0.7c1.4-0.2,3.5-0.5,6.5-0.7l0.7-0.2c1-14.5,1.5-25.7,1.5-33.6c0-4.1-0.2-7.1-0.6-9c0.4-0.1,1.3-0.3,2.7-0.5
		c1.4-0.2,3-0.3,4.8-0.3c5.8,0,11,1.5,15.4,4.5c4.4,3,6.6,8.5,6.6,16.6l-0.2,3.4l-0.9,16.4l5.2-0.2c1.4-0.1,3.3-0.2,5.8-0.2l5-0.2
		h3.9h3.4l0.4,5.8c-0.1,0-0.5,0.1-1,0.3c-0.6,0.2-1.3,0.3-2.1,0.5l-3.9,0.6l-4.8,0.7l-6,0.7l-6.2,0.7c-0.5,9.8-0.9,20.6-1.1,32.4
		v17.5c0,12.1,0.4,21,1.3,26.9c0.9,5.9,2.8,8.9,5.8,8.9c1.6,0,3.5-0.9,5.6-2.6c3.6-3,7.6-7.9,12-14.7c4.4-6.8,8.2-13.4,11.5-19.6
		c3.2-6.2,5.3-10.3,6.2-12.1L544,139.7z"/>
</g>
</svg>
